<?xml version="1.0" encoding="UTF-8"?>
<svg width="43px" height="43px" viewBox="0 0 43 43" version="1.1" xmlns="http://www.w3.org/2000/svg" xmlns:xlink="http://www.w3.org/1999/xlink">
    <title>circle_customer_help_info_information_service_support_icon_123208</title>
    <g id="Wireframes" stroke="none" stroke-width="1" fill="none" fill-rule="evenodd">
        <g id="Quick-Session-13" transform="translate(-16.000000, -72.000000)">
            <g id="circle_customer_help_info_information_service_support_icon_123208" transform="translate(16.100000, 72.319329)">
                <g id="Layer_2" transform="translate(3.846332, 3.846332)" fill="#4C4C4C" fill-rule="nonzero">
                    <path d="M16.6674375,11.5389952 C15.2512573,11.5389952 14.1032163,10.3909543 14.1032163,8.97477404 C14.1032163,7.5585938 15.2512573,6.41055288 16.6674375,6.41055288 C18.0836177,6.41055288 19.2316587,7.5585938 19.2316587,8.97477404 C19.2316587,10.3909543 18.0836177,11.5389952 16.6674375,11.5389952 Z" id="Path"></path>
                    <path d="M16.6674375,33.334875 C7.46226595,33.334875 1.13874295e-15,25.8726091 1.13874295e-15,16.6674375 C1.13874295e-15,7.46226595 7.46226595,1.13874295e-15 16.6674375,1.13874295e-15 C25.8726091,1.13874295e-15 33.334875,7.46226595 33.334875,16.6674375 C33.334875,21.0879168 31.5788464,25.3273447 28.4530956,28.4530956 C25.3273447,31.5788464 21.0879168,33.334875 16.6674375,33.334875 Z M16.6674375,2.56422115 C8.87844619,2.56422115 2.56422115,8.87844619 2.56422115,16.6674375 C2.56422115,24.4564288 8.87844619,30.7706538 16.6674375,30.7706538 C24.4564288,30.7706538 30.7706538,24.4564288 30.7706538,16.6674375 C30.7706538,12.927032 29.2847835,9.3398237 26.6399174,6.69495759 C23.9950513,4.05009147 20.407843,2.56422115 16.6674375,2.56422115 Z" id="Shape"></path>
                    <path d="M16.6674375,26.9243221 C15.2512573,26.9243221 14.1032163,25.7762812 14.1032163,24.360101 L14.1032163,16.6674375 C14.1032163,15.2512573 15.2512573,14.1032163 16.6674375,14.1032163 C18.0836177,14.1032163 19.2316587,15.2512573 19.2316587,16.6674375 L19.2316587,24.360101 C19.2316587,25.7762812 18.0836177,26.9243221 16.6674375,26.9243221 Z" id="Shape"></path>
                </g>
                <g id="frame">
                    <rect id="Rectangle" x="0" y="0" width="41.0275385" height="41.0275385"></rect>
                </g>
            </g>
        </g>
    </g>
</svg>